<svg enable-background="new 0 0 518.7 286.9" viewBox="0 0 518.7 286.9" xmlns="http://www.w3.org/2000/svg"><path d="m517.7 224.3c-.8-.3-1.4 0-1.8.8-.3.7-.7 1.4-1 2.1s-.7 1.4-1.1 2c-1.1 1.8-2.3 3.4-3.6 4.9-1.4 1.5-2.8 2.9-4.2 4.2-.6.6-1.4 1.4-2.5 2.2-1.1.9-2.3 1.7-3.7 2.6s-2.7 1.7-4.1 2.4-2.7 1.2-3.9 1.4-2.1.1-2.9-.3c-.8-.5-1.1-1.4-1.1-2.8-.1-1.2-.1-2.4.2-3.5.2-1.2.5-2.3.9-3.5l2.6-.8c6.6-2.5 11.8-6.8 15.6-12.8 1.1-1.6 1.9-3.5 2.5-5.7.2-.9.3-1.8.3-2.6-.1-.8-.4-1.6-1-2.4-1-1.2-2.1-2.2-3.3-2.8s-2.7-.8-4.2-.5c-.6.1-1.3.3-1.9.5s-1.3.5-1.8.8c-1.2.6-2.4 1.3-3.5 2.2-1.1.8-2.1 1.8-3 2.8-2 2.3-3.8 4.7-5.4 7.3-.7 1.2-1.4 2.4-2 3.6l-8.8 9c-.3.3-.6.6-1 .9s-.7.7-1.1 1.1c.2-1.1.5-2.3.9-3.4.4-1.2.7-2.4 1.1-3.7.3-1 .1-1.7-.6-2.4-.5-.5-1.1-1-1.9-1.4-.6-.3-1.1-.4-1.4-.3s-.7.4-1 1c-.6.8-1.1 1.7-1.5 2.5-.7 1.4-1.7 3.1-2.8 5.2s-2.3 4.1-3.6 6-2.7 3.5-4.1 4.7-2.8 1.7-4.1 1.4c-.7-.1-1.1-.9-1-2.5s.5-3.5 1.1-5.8c.7-2.3 1.6-4.6 2.7-7s2.3-4.5 3.6-6.3c.6-.8 1.2-1.6 1.9-2.5s1.4-1.8 2.2-2.6 1.7-1.5 2.7-2.1 2-.9 3-1.1c.6-.1 1.2 0 1.6.3.5.3.8.6 1.1 1.1s.5 1 .6 1.7c.1.6.2 1.2.2 1.8v.8c0 .2.1.5.2.7.2.5.5.8.9 1.1.5.3.9.4 1.3.4.5-.1.8-.3 1-.6.1-.3.3-.7.4-1.1.3-1.1.4-2.2 0-3.2-.3-1-.8-1.9-1.6-2.8-1.2-1.5-2.8-2.7-4.7-3.6s-4-1.1-6.2-.7c-2 .4-3.8 1.3-5.5 2.8s-3.3 3.2-4.7 5.2c-1.2 1.7-2.3 3.5-3.3 5.4l-13.2 13.2-.8.8-.3-.2c.2-.8.4-1.5.6-2.2s.4-1.4.7-2.2c.6-1.8 1.2-3.6 1.9-5.3s1.3-3.5 1.9-5.3c.4-1 .2-1.8-.7-2.5-.5-.5-1.1-.9-1.7-1.2s-1.3-.5-1.9-.6c-1-.2-1.8.2-2.2 1-.3.6-.6 1.2-1 1.7s-.8.9-1.4 1.4c-.2.2-.4.4-.5.6s-.3.4-.5.7c-1.1 1.4-2.1 2.7-3 4-1.8 2.4-3.6 4.8-5.5 7.1s-3.9 4.5-6 6.7l-.9.8c-.1-.3-.1-.5-.1-.7s0-.3 0-.5c0-.3 0-.5 0-.8 0-.2.1-.5.1-.8.8-3.9 2.1-7.5 3.9-10.9s4-6.5 6.7-9.4c1.1-1.1 2.3-2.2 3.5-3.2s2.5-1.9 4-2.7c.7-.4 1.5-.7 2.3-.9s1.6-.3 2.5-.2c.8.1 1.3.2 1.5.4s.4.7.5 1.5c.1.5.1.9.2 1.4s.3.9.7 1.3c.6.7 1.2 1 1.9.8.6-.1 1.1-.6 1.4-1.5.3-.8.3-1.6-.1-2.5-.5-1.5-1.3-2.7-2.5-3.7-1.6-1.6-3.4-2.6-5.2-3.2-1.8-.5-3.8-.5-6 .2-1.3.4-2.5.9-3.6 1.6-1.1.6-2.1 1.4-3.1 2.2-1.9 1.6-3.6 3.4-5.1 5.4-1.5 1.9-2.9 4-4.2 6.1-.1.2-.2.4-.3.6-.1.1-.2.1-.4.2-.6.3-1.2.7-1.8 1.1s-1.3.8-2 1.2l.4-1.6c.1-1 .3-1.9.4-2.8.2-.9.3-1.8.4-2.8.1-1.2-.2-2.3-.8-3.3s-1.5-1.8-2.4-2.4c-1-.6-2-1-3.1-1.1s-2.1 0-3 .5c-1 .6-2 1.1-3 1.6s-2 1-2.9 1.7c-2.3 1.5-4.3 3.2-6.2 5.1s-3.7 3.8-5.3 5.9c-2.4 3-4.7 6.2-6.7 9.4-2.1 3.2-4.1 6.5-6.1 9.9l-.7 1.1c-.1-.2-.1-.5 0-.9 1.3-4.2 2.7-8.3 4.2-12.3s3.1-8.1 4.7-12.1l2.5-6.3c.3-.9.1-1.7-.6-2.5-1-1.1-2.2-1.9-3.8-2.2-1.1-.3-1.9 0-2.6.8-.3.5-.6.9-.8 1.2-.3.4-.6.8-.8 1.2-1 1.6-1.9 3.2-2.6 4.9s-1.4 3.4-2.1 5.1c-2 4.9-3.8 9.7-5.4 14.6s-3.2 9.8-4.8 14.8c-2 6.2-3.4 12.7-4.4 19.4-.2 1.1-.3 2.1-.4 3.2s-.2 2.1-.3 3.2c-.1.8 0 1.4.3 1.7s.8.6 1.6.8c.5.1.9.2 1.4.2h1.4c.9 0 1.6-.5 2-1.6.7-1.9 1.4-3.7 2.1-5.6s1.5-3.7 2.3-5.5c2.5-6.1 5.2-12 8.1-17.8s6.2-11.4 9.9-16.8c1.9-2.8 4-5.4 6.2-7.9 2.2-2.4 4.7-4.7 7.4-6.8 1.1-.8 2.2-1.5 3.3-2.2 1.2-.6 2.4-1.2 3.6-1.7l1.4-.4v.3.3l-.3 1.4c-.6 2.7-1.5 5.2-2.5 7.6-1.1 2.4-2.2 4.9-3.4 7.3-.1.2-.3.4-.4.5-.2.1-.3.3-.5.5-1.7 1.4-3.4 2.7-5.1 4.1s-3.4 2.7-5 4.1c-1.6 1.3-3.1 2.7-4.4 4.2s-2.6 3.1-3.7 4.8c-.3.5-.6 1-.9 1.6-.3.5-.5 1.1-.7 1.7-.7 2-.1 3.5 1.9 4.3 2 .9 4 .9 6.1-.1 1.2-.6 2.4-1.2 3.5-1.9s2.2-1.5 3.3-2.2c2.1-1.6 3.9-3.5 5.5-5.5s3.1-4.1 4.5-6.3c1.1-1.8 2.1-3.6 3-5.5.8-1.9 1.7-3.8 2.5-5.8.4-1.1 1.1-1.9 2.1-2.4.6-.3 1.2-.7 1.8-1-.4.8-.7 1.7-1 2.5-.9 2.5-1.5 5.2-1.8 8-.2 2 0 3.8.4 5.4.7 2.3 2.2 3.9 4.5 4.8 1.6.6 3 .4 4.2-.6.3-.3.5-.5.8-.8.3-.2.5-.5.8-.8l6.8-7.6 1-1.1c-.2.8-.3 1.3-.3 1.6-.1.8-.2 1.6-.3 2.3s-.2 1.5-.3 2.3c-.1 1.3.3 2.3 1.2 3 2.3 1.6 4.3 1.4 6.1-.7l4.1-4.8c2-2.2 3.9-4.4 5.9-6.6.8-.9 1.6-1.8 2.4-2.7-.6 1.6-1 3.2-1.2 4.8-.3 1.8-.3 3.7-.2 5.5.1 1.1.4 2.1.8 3s1 1.7 1.9 2.4c1.6 1.3 3.4 2 5.3 2s3.7-.6 5.4-1.7l.8-.5c-.5.6-.9 1.1-1.3 1.6s-.9 1-1.3 1.5c-1.9 2-3.8 3.9-5.6 5.9s-3.5 4.1-5 6.3c-.8 1.2-1.7 2.5-2.5 3.9-.8 1.3-1.5 2.7-2.1 4.1s-1 2.9-1.3 4.5-.3 3.1-.1 4.7c.3 2.8 1.9 4.5 4.7 5 4.2.7 7.7-.6 10.4-4 1.5-1.8 2.7-3.7 3.7-5.8 1.4-2.6 2.6-5.2 3.6-8 1-2.7 2-5.5 2.8-8.3s1.5-5.5 2.2-8.3c.7-2.7 1.4-5.5 2.2-8.3.2-.8.5-1.5 1.1-2l9-9.5c-.3 1-.6 2.1-.8 3.2-.3 1.6-.3 3.3-.1 5 .2 1.9.7 3.4 1.6 4.7.8 1.2 1.8 2.2 2.9 3s2.3 1.2 3.6 1.5 2.6.3 3.8.2c1-.1 1.9-.3 2.7-.6s1.7-.6 2.5-1.1c1.8-.8 3.5-1.8 5-3 1.6-1.2 3.1-2.4 4.5-3.7 2.1-1.7 4.1-3.7 5.8-5.9s3.2-4.5 4.6-6.9c.2-.5.4-.9.6-1.4s.3-.9.5-1.4c.1-1-.2-1.6-1.1-1.9zm-24.5 2.7c.9-1.7 1.9-3.3 3-4.9.5-.7 1.1-1.6 1.8-2.5s1.4-1.8 2.2-2.6 1.7-1.5 2.6-2.2c.9-.6 1.9-1 2.8-1.3.3.5.4.9.4 1.4s-.1.9-.2 1.4c-.2 1-.5 1.9-.8 2.8-.4.9-.8 1.7-1.4 2.5-1.4 2.1-2.9 4-4.7 5.5-1.8 1.6-3.8 2.9-5.9 4.2l-2 1-.2-.2c.7-1.7 1.6-3.4 2.4-5.1zm-102.6 22.2c-1.9 2.3-4 4.3-6.5 6 1.3-2.8 3-5.2 5-7.3s4.2-4.1 6.6-5.9c-1.5 2.6-3.2 5-5.1 7.2zm68.8 7.8c-.8 3-1.6 5.9-2.5 8.8-.8 2.9-1.8 5.8-3 8.7-.5 1.3-1.1 2.5-1.7 3.7s-1.3 2.3-2.1 3.3c-.3.4-.7.7-1 1.1-.3.3-.7.5-1 .6s-.6.1-.9-.1-.6-.6-.8-1.2c-.6-2.5-.5-4.9.1-7.1.6-2.3 1.6-4.4 2.9-6.5s2.8-4.1 4.4-6c1.7-1.9 3.2-3.8 4.7-5.5l.8-.8c.2.5.2.9.1 1z"/><g fill="none"><path d="m62.7 122c0-4.9-1.7-9.1-5.2-12.6s-7.7-5.2-12.7-5.2h-31.5v33.7h31.6c4.9 0 9-1.5 12.5-4.5s5.3-6.8 5.3-11.4z"/><path d="m189.8 128.2c-7.2 0-13 2.8-17.3 8.3-4.3 5.4-6.4 12.7-6.4 21.8s2.1 16.4 6.4 22c4.4 5.5 10.2 8.3 17.3 8.3 7.2 0 12.9-2.8 17.3-8.3 4.3-5.5 6.4-12.9 6.4-22s-2.1-16.4-6.4-21.8c-4.4-5.5-10.1-8.3-17.3-8.3z"/><path d="m59.6 154.9c-4.2-3.5-9.1-5.2-14.7-5.2h-31.6v36.4h31.6c5.7 0 10.6-1.6 14.7-4.9 4.3-3.5 6.4-7.8 6.4-13s-2.1-9.7-6.4-13.3z"/><path d="m116.1 188.6c7.2 0 12.9-2.8 17.3-8.3 4.3-5.5 6.4-12.9 6.4-22s-2.1-16.4-6.4-21.8c-4.4-5.5-10.2-8.3-17.3-8.3-7.2 0-13 2.8-17.3 8.3-4.3 5.4-6.4 12.7-6.4 21.8s2.1 16.4 6.4 22c4.4 5.5 10.1 8.3 17.3 8.3z"/></g><path d="m.1 197.7v.2h44.8c1.6 0 3.2-.1 4.8-.3-.6 0-1.2.1-1.8.1z"/><path d="m189.7 117.6c-10.7 0-19.3 3.7-25.8 11.1s-9.7 17.3-9.7 29.7 3.2 22.3 9.7 29.7 15.1 11.1 25.8 11.1 19.4-3.7 26-11.1c6.5-7.4 9.7-17.3 9.7-29.7s-3.2-22.3-9.7-29.7c-6.6-7.4-15.3-11.1-26-11.1zm17.4 62.7c-4.4 5.5-10.2 8.3-17.3 8.3-7.2 0-13-2.8-17.3-8.3s-6.4-12.9-6.4-22 2.1-16.4 6.4-21.8c4.4-5.5 10.2-8.3 17.3-8.3 7.2 0 12.9 2.8 17.3 8.3 4.3 5.4 6.4 12.7 6.4 21.8.1 9.1-2.1 16.4-6.4 22z"/><ellipse cx="328.1" cy="222.4" fill="#c2a65c" rx="9.4" ry="9.4" transform="matrix(.9732 -.2298 .2298 .9732 -42.3211 81.3426)"/><path d="m74.5 153.9c-2.9-4.3-6.8-7.6-11.8-9.9 4-2 7.3-4.9 9.7-8.8 2.3-3.9 3.5-8.3 3.5-13 0-8.3-3.1-15.4-9.2-21.2-6.1-5.7-13.4-8.5-21.9-8.5h-44.7v2.4h-.1v102.9h.1 47.8c.6 0 1.2 0 1.8-.1 2.8-.2 5.5-.8 8-1.8 4-1.4 7.8-3.5 11.2-6.3 6.9-5.7 10.4-12.8 10.4-21.3-.1-5.2-1.6-10-4.8-14.4zm-14.9 27.4c-4.2 3.2-9.1 4.9-14.7 4.9h-31.6v-36.4h31.6c5.7 0 10.6 1.7 14.7 5.2 4.3 3.6 6.4 8 6.4 13.4 0 5.1-2.1 9.4-6.4 12.9zm-46.3-77h31.6c5 0 9.2 1.7 12.7 5.2s5.2 7.7 5.2 12.6c0 4.5-1.8 8.3-5.4 11.3-3.5 3-7.6 4.5-12.5 4.5h-31.6z"/><path d="m142 128.7c-6.6-7.4-15.2-11.1-26-11.1-10.7 0-19.3 3.7-25.8 11.1-3.8 4.4-6.5 9.7-8.1 15.9-1.6 4.8-2.4 10.2-2.4 16.2 0 11.6 3.2 20.8 9.5 27.8 5.3 5.9 12.2 9.3 20.6 10.2 2 .3 4 .4 6.1.4 10.7 0 19.4-3.7 26-11.1 6.5-7.4 9.7-17.3 9.7-29.7.1-12.4-3.2-22.3-9.6-29.7zm-43.2 7.8c4.4-5.5 10.2-8.3 17.3-8.3 7.2 0 12.9 2.8 17.3 8.3 4.3 5.4 6.4 12.7 6.4 21.8s-2.1 16.4-6.4 22c-4.4 5.5-10.2 8.3-17.3 8.3-7.2 0-13-2.8-17.3-8.3s-6.4-12.9-6.4-22 2.1-16.4 6.4-21.8z"/><path d="m288.8 117h-15.1l-28 26.8v-51.5h-13.2v105.4h13.2v-38.1l15.7-15.8 39.6 53.9h14.4l-45.1-62.6z"/><path d="m410.4 175.4-52.8-80.1h-13.1v102.4h13.1v-82.9l52.8 82.9h13.2v-105.4h-13.2z"/><path d="m474.5 141.4v13h29.1c0 9.9-2.7 17.9-8 23.8-5.3 6-12.4 9-21.2 9-9.6 0-17.2-3.8-22.9-11.4-5.8-7.7-8.7-18-8.7-30.7 0-13.1 2.9-23.5 8.7-31.2 5.7-7.9 13.3-11.8 22.9-11.8 6.8 0 12.8 2.2 18 6.6 5.3 4.4 8.6 9.9 9.7 16.7l13.2-1.4c-1.7-9.8-6.5-17.9-14.2-24.3-7.7-6.2-16.7-9.4-26.7-9.4-13.5 0-24.4 5-32.6 14.9-8.1 10.1-12.1 23.4-12.1 39.9 0 16.3 4 29.4 12.1 39.2 8.2 9.8 19.1 14.7 32.6 14.7 6.2 0 12.1-1.3 17.5-3.8 5.7-2.7 10.2-6.4 13.5-11.3l1.9 11.3h9.4v-53.8z"/><path d="m334.5 197.7v-102.4l-13.2 6v96.4z"/><path d="m280 110.1c7.6.3 18.1-.3 15-.2 3.5-2.9 8.4-6.6 14.1-10.2 13.4-8.5 30.9-16.7 43.5-13.6 5.7 1.4 7.5 2.5 13.3 3.3 1.7.2 4.1.5 5.8 0 5.8-1.8 7.9-44.9 2.9-51.5-.6-.8-11.3-3.6-12-2.8-7 7.3-9.6 15-16.1 22.4-1.6-18.8-5-36.9-10.9-55.1-.4-1.1-11.5-3.2-11.9-2.4-9 18.2-9.5 38-17.8 56.4-7.1-8.8-16.5-18.1-22-28-.6-1.1-10-2.7-10-2.2-1.5 10.5-2.4 18.8-.3 29.3 2.5 12.7 13.4 21.6 15.4 25.3.5 1 3.7.4 3.7.4-4.5-10.1-6.6-10.3-8.7-21.2-1.3-6.9-1.6-13.8-1.2-20.7 5.9 7.5 15.8 14.8 21.2 21.2.8.9 5.1 1.6 5.6.6 7.4-14.9 11.7-29.8 19.1-44.8 4.6 15.2 11.5 30.7 13.2 46.4.1 1 4.4 2.3 5.2 1.5 5.9-6.2 11.1-12.1 18.4-18.1 3.7 15.2 4.3 39.7 0 40.3-3.1.4-9.1-1.2-12.1-2.2-5.9-1.9-12.4-1.9-17.9-2.1-9.2-.4-20.6 4.1-31 10-10 5.8-19.2 12.9-24.5 18z" fill="#c2a65c"/></svg>